<?xml version="1.0" encoding="UTF-8"?>
<svg width="404px" height="404px" viewBox="0 0 404 404" version="1.1" xmlns="http://www.w3.org/2000/svg" xmlns:xlink="http://www.w3.org/1999/xlink">
    <!-- Generator: Sketch 44.1 (41455) - http://www.bohemiancoding.com/sketch -->
    <title>trello</title>
    <desc>Created with Sketch.</desc>
    <defs></defs>
    <g id="Page-1" stroke="none" stroke-width="1" fill="none" fill-rule="evenodd">
        <g id="trello" fill-rule="nonzero" fill="#FFFFFF">
            <path d="M354.752,0 L49.248,0 C22.049,0 0,22.049 0,49.248 L0,354.752 C0,381.951 22.049,404 49.248,404 L354.752,404 C381.951,404 404,381.951 404,354.752 L404,49.248 C404,22.049 381.951,0 354.752,0 Z M175.74,314.888 C175.74,327.521 165.499,337.761 152.867,337.761 L75.394,337.761 C62.761,337.761 52.521,327.52 52.521,314.888 L52.521,78.827 C52.521,66.194 62.762,55.954 75.394,55.954 L152.867,55.954 C165.5,55.954 175.74,66.195 175.74,78.827 L175.74,314.888 Z M351.48,213.336 C351.48,225.969 341.239,236.209 328.607,236.209 L251.134,236.209 C238.501,236.209 228.261,225.968 228.261,213.336 L228.261,78.827 C228.261,66.194 238.502,55.954 251.134,55.954 L328.607,55.954 C341.24,55.954 351.48,66.195 351.48,78.827 L351.48,213.336 Z" id="Shape"></path>
        </g>
    </g>
</svg>